<svg width="16" height="16" viewBox="0 0 16 16" xmlns="http://www.w3.org/2000/svg">
	<path d="M 8,4.25 A 3.75,3.75 0 0 0 4.3125,7.359375 L 6.6191406,6.7421875 A 1.875,1.875 0 0 1 8,6.125 1.875,1.875 0 0 1 9.875,8 1.875,1.875 0 0 1 9.2636719,9.3769531 L 8.6445312,11.6875 A 3.75,3.75 0 0 0 11.75,8 3.75,3.75 0 0 0 8,4.25 Z" />
	<path d="M 8,0.5 A 7.5,7.5 0 0 0 0.5,8 7.5,7.5 0 0 0 0.52734375,8.375 L 2.3847656,7.875 A 5.625,5.625 0 0 1 8,2.375 5.625,5.625 0 0 1 13.625,8 5.625,5.625 0 0 1 8.1269531,13.615234 L 7.6308594,15.472656 A 7.5,7.5 0 0 0 8,15.5 7.5,7.5 0 0 0 15.5,8 7.5,7.5 0 0 0 8,0.5 Z" />
	<path d="M 8,8 7.796875,8.0546875 C 5.4926826,8.6719498 3.1893771,9.2870788 0.88671875,9.9101562 0.40867006,10.038249 0.36826764,10.340434 0.796875,10.587891 l 2.0859375,1.205078 -2.30859375,2.308593 c -0.0979342,0.09793 -0.0979342,0.255582 0,0.353516 l 0.97070315,0.970703 c 0.097934,0.09793 0.2555814,0.09793 0.3535156,0 l 2.3085937,-2.308593 1.2050782,2.085937 c 0.2474561,0.428606 0.5496435,0.388202 0.6777344,-0.08984 0.6169244,-2.304808 1.2380519,-4.607961 1.8574218,-6.9121091 z">
		<animate attributeName="opacity" values="0;1;0" dur="2s" repeatCount="indefinite" />
	</path>
</svg>
